<?xml version="1.0" encoding="UTF-8"?>
<svg id="Layer_1" data-name="Layer 1" xmlns="http://www.w3.org/2000/svg" viewBox="0 0 152 84">
  <defs>
    <style>
      .cls-1 {
        fill: #f0514f;
      }

      .cls-2 {
        fill: none;
      }

      .cls-3 {
        fill: #1e4497;
      }
    </style>
  </defs>
  <g>
    <g>
      <path class="cls-3" d="M12.33,74.68v5.24h-1.45v-5.01c0-1.15-.51-1.98-1.64-1.98s-1.85.84-1.85,1.98v5.01h-1.45v-5.01c0-1.15-.51-1.98-1.64-1.98s-1.85.84-1.85,1.98v5.01h-1.45v-7.95h1.32v1.13c.51-.77,1.26-1.25,2.23-1.25,1.09,0,2.05.63,2.53,1.56.51-.95,1.32-1.56,2.41-1.56,1.53,0,2.83,1.27,2.83,2.83Z"/>
      <path class="cls-3" d="M18.34,74.26c0-.67-.65-1.21-1.45-1.21s-1.45.42-1.45,1.09c0,1.57,4.46.72,4.46,3.61,0,1.45-1.35,2.29-3.01,2.29s-3.01-1.13-3.01-2.53h1.45c0,.73.7,1.33,1.57,1.33s1.57-.36,1.57-1.09c0-1.69-4.46-.72-4.46-3.61,0-1.33,1.29-2.29,2.89-2.29s2.89,1.08,2.89,2.41h-1.45Z"/>
      <path class="cls-3" d="M32.88,74.68v5.24h-1.45v-5.01c0-1.15-.51-1.98-1.64-1.98s-1.85.84-1.85,1.98v5.01h-1.45v-5.01c0-1.15-.51-1.98-1.64-1.98s-1.85.84-1.85,1.98v5.01h-1.45v-7.95h1.33v1.13c.51-.77,1.26-1.25,2.23-1.25,1.09,0,2.05.63,2.53,1.56.51-.95,1.32-1.56,2.41-1.56,1.53,0,2.83,1.27,2.83,2.83Z"/>
      <path class="cls-3" d="M35.87,76.19c.07,1.58.79,2.77,2.16,2.77.86,0,1.38-.47,1.66-1.21h1.44c-.49,1.43-1.59,2.29-3.1,2.29-2,0-3.51-1.51-3.61-3.86,0-.08,0-.16,0-.24,0-.25.02-.49.05-.72.27-2.07,1.71-3.37,3.57-3.37s3.1,1.31,3.33,3.37c.03.23.04.47.04.72,0,.08,0,.16,0,.24h-5.53ZM39.93,75.23c-.13-1.34-.66-2.29-1.89-2.29s-1.94.95-2.12,2.29h4.02Z"/>
      <path class="cls-1" d="M48.06,82.82h-1.32v-14.46h1.32v14.46Z"/>
      <path class="cls-3" d="M59.42,77.27h1.44c-.42,1.71-1.67,2.77-3.34,2.77-2.07,0-3.61-1.62-3.61-4.1s1.55-4.1,3.61-4.1c1.67,0,2.92,1.06,3.34,2.77h-1.44c-.26-1.01-.86-1.69-1.9-1.69-1.45,0-2.17,1.31-2.17,3.01s.72,3.01,2.17,3.01c1.04,0,1.64-.68,1.9-1.69Z"/>
      <path class="cls-3" d="M68.46,74.62v5.3h-1.33v-.96c-.75,1.08-2.22,1.08-2.47,1.08-.33-.01-.66-.07-.98-.18-.71-.26-1.32-.79-1.52-1.53-.07-.23-.1-.47-.09-.71.02-1.03.69-1.73,1.58-2.12,1.04-.46,2.25-.57,3.36-.77v-.24c0-.87-.48-1.45-1.63-1.45s-1.58.53-1.62,1.33h-1.44c.1-1.42,1.07-2.53,3.06-2.53s3.07,1.24,3.07,2.77ZM67.03,75.83c-1.49.21-1.83.29-2.45.52-.64.24-.93.64-1.03,1.04-.03.12-.04.24-.04.36-.01.36.15.72.42.95.35.27.85.28,1.28.22.39-.05.77-.17,1.1-.38.43-.26.7-.73.7-1.24v-1.48Z"/>
      <path class="cls-3" d="M77.59,75.95c0,2.48-1.55,4.1-3.62,4.1-.93,0-1.65-.42-2.17-1.11v3.88h-1.45v-10.85h1.32v1.16c.52-.79,1.29-1.28,2.29-1.28,2.07,0,3.62,1.62,3.62,4.1ZM76.14,75.95c0-1.7-.84-3.01-2.29-3.01s-2.17,1.31-2.17,3.01.72,3.01,2.17,3.01,2.29-1.31,2.29-3.01Z"/>
      <path class="cls-3" d="M80.73,70.65h-1.57v-1.57h1.57v1.57ZM80.67,79.92h-1.45v-7.95h1.45v7.95Z"/>
      <path class="cls-3" d="M84.75,78.12c0,.54.36.72.72.72h.96v1.08h-1.2c-.96,0-1.93-.47-1.93-1.81v-5.06h-1.33v-1.08h1.33v-2.17h1.45v2.17h1.69v1.08h-1.69v5.06Z"/>
      <path class="cls-3" d="M93.94,74.62v5.3h-1.33v-.96c-.75,1.08-2.22,1.08-2.47,1.08-.33-.01-.66-.07-.98-.18-.71-.26-1.32-.79-1.52-1.53-.07-.23-.1-.47-.09-.71.02-1.03.69-1.73,1.58-2.12,1.04-.46,2.25-.57,3.36-.77v-.24c0-.87-.48-1.45-1.63-1.45s-1.58.53-1.62,1.33h-1.44c.1-1.42,1.07-2.53,3.06-2.53s3.07,1.24,3.07,2.77ZM92.51,75.83c-1.49.21-1.83.29-2.45.52-.64.24-.93.64-1.03,1.04-.03.12-.04.24-.04.36-.01.36.15.72.42.95.35.27.85.28,1.28.22.39-.05.77-.17,1.1-.38.43-.26.7-.73.7-1.24v-1.48Z"/>
      <path class="cls-3" d="M97.28,79.92h-1.45v-10.84h1.45v10.84Z"/>
      <path class="cls-1" d="M103.96,82.82h-1.32v-14.46h1.32v14.46Z"/>
      <path class="cls-3" d="M117.37,75.95c0,2.48-1.55,4.1-3.62,4.1-.93,0-1.65-.42-2.17-1.11v3.88h-1.45v-10.85h1.32v1.16c.52-.79,1.29-1.28,2.29-1.28,2.07,0,3.62,1.62,3.62,4.1ZM115.93,75.95c0-1.7-.84-3.01-2.29-3.01s-2.17,1.31-2.17,3.01.72,3.01,2.17,3.01,2.29-1.31,2.29-3.01Z"/>
      <path class="cls-3" d="M122.99,71.88v1.18h-.62c-1.17,0-1.91.9-1.91,2.05v4.82h-1.45v-7.95h1.32v1.16c.52-.79,1.29-1.28,2.29-1.28.12,0,.24.01.36.02Z"/>
      <path class="cls-3" d="M130.79,75.95c0,2.48-1.55,4.1-3.62,4.1s-3.61-1.62-3.61-4.1,1.55-4.1,3.61-4.1,3.62,1.62,3.62,4.1ZM129.35,75.95c0-1.7-.72-3.01-2.17-3.01s-2.17,1.31-2.17,3.01.72,3.01,2.17,3.01,2.17-1.31,2.17-3.01Z"/>
      <path class="cls-3" d="M139.66,75.95c0,2.48-1.55,4.1-3.62,4.1-.93,0-1.65-.42-2.17-1.11v3.88h-1.45v-10.85h1.32v1.16c.52-.79,1.29-1.28,2.29-1.28,2.07,0,3.62,1.62,3.62,4.1ZM138.22,75.95c0-1.7-.84-3.01-2.29-3.01s-2.17,1.31-2.17,3.01.72,3.01,2.17,3.01,2.29-1.31,2.29-3.01Z"/>
      <path class="cls-3" d="M142.4,76.19c.07,1.58.79,2.77,2.16,2.77.86,0,1.38-.47,1.66-1.21h1.44c-.49,1.43-1.59,2.29-3.1,2.29-2,0-3.51-1.51-3.61-3.86,0-.08,0-.16,0-.24,0-.25.02-.49.05-.72.27-2.07,1.71-3.37,3.57-3.37s3.1,1.31,3.33,3.37c.03.23.04.47.04.72,0,.08,0,.16,0,.24h-5.53ZM146.46,75.23c-.13-1.34-.66-2.29-1.89-2.29s-1.94.95-2.12,2.29h4.02Z"/>
      <path class="cls-3" d="M151,79.92h-1.45v-10.84h1.45v10.84Z"/>
    </g>
    <g>
      <g>
        <polygon class="cls-1" points="80.11 32.79 78.93 30.74 89.42 12.54 68.48 12.54 67.3 10.49 92.96 10.49 80.11 32.79"/>
        <polygon class="cls-1" points="84.83 40.97 83.65 38.92 104.24 3.24 63.11 3.24 61.92 1.18 107.79 1.18 84.83 40.97"/>
        <polygon class="cls-1" points="82.47 36.88 81.29 34.83 96.83 7.89 65.79 7.89 64.61 5.84 100.37 5.84 82.47 36.88"/>
      </g>
      <path class="cls-3" d="M45.2,40.51c0,12.49-8.12,18.1-21.22,18.1-14.98,0-23.1-6.87-22.97-18.1h13.17c0,4.99,4.8,6.24,9.79,6.24,4.37,0,8.12-1.25,8.12-4.99,0-8.12-29.97-2.5-29.97-23.72C2.12,7.43,10.23,1.18,22.72,1.18s21.09,5.62,21.09,16.86h-13.23c0-4.37-4.15-4.99-7.86-4.99-4.37,0-7.49,1.25-7.49,4.99,0,8.74,29.97,4.99,29.97,22.47Z"/>
      <polygon class="cls-3" points="54.99 1.18 42.22 1.18 75.38 58.62 81.76 47.56 54.99 1.18"/>
      <path class="cls-3" d="M132.81,1.18h-18.63l-5.94,10.28v47.15h13.4v-21.06h11.17c8.93,0,18.19-5.95,18.19-18.19S141.74,1.18,132.81,1.18ZM131.54,25.43h-9.89v-12.13h9.89c2.98,0,6.06,1.98,6.06,6.06s-3.09,6.06-6.06,6.06Z"/>
    </g>
  </g>
  <rect class="cls-2" width="152" height="84"/>
</svg>